<?xml version="1.0" encoding="UTF-8"?>
<svg id="Layer_1" data-name="Layer 1" xmlns="http://www.w3.org/2000/svg" version="1.1" viewBox="0 0 600 77">
  <defs>
    <style>
      .cls-1 {
        fill: #36577f;
      }

      .cls-1, .cls-2 {
        stroke-width: 0px;
      }

      .cls-2 {
        fill: #335276;
      }

      .cls-3 {
        isolation: isolate;
      }
    </style>
  </defs>
  <g class="cls-3">
    <path class="cls-1" d="M249.5,26.5h-1.8c-2.1,0-3.6-.6-3.9-1.8-.6,1.2-2.1,1.8-3.9,1.8-3.6,0-5.2-2.1-5.2-6.4s1.8-6.1,5.2-6.1h5.5v7.3c0,1.8.9,2.7,2.7,2.7h1.5v2.4ZM242.5,16.2h-2.7c-1.2,0-1.8.3-2.1,1.2-.3.6-.6,1.5-.6,3s0,2.4.6,3c.3.6,1.2,1.2,2.1,1.2s1.8-.3,2.1-1.2c.3-.6.6-1.5.6-3v-4.2ZM240.1,10.4c0,.9-.6,1.5-1.5,1.5s-1.5-.6-1.5-1.5.6-1.5,1.5-1.5,1.5.6,1.5,1.5ZM243.7,10.4c0,.9-.6,1.5-1.5,1.5s-1.5-.6-1.5-1.5.6-1.5,1.5-1.5,1.5.6,1.5,1.5Z"/>
    <path class="cls-1" d="M260.1,26.5h-1.5c-1.5,0-3-.6-3.9-1.5-.9.9-2.1,1.5-3.9,1.5h-2.1v-2.1h1.8c1.8,0,2.7-.9,2.7-2.7v-6.7l2.7-.9v7.3c0,1.8.9,2.7,2.7,2.7h1.5v2.4ZM254.3,30.5c0,.9-.6,1.5-1.5,1.5s-1.5-.6-1.5-1.5.6-1.5,1.5-1.5,1.5.6,1.5,1.5ZM258,30.5c0,.9-.6,1.5-1.5,1.5s-1.5-.6-1.5-1.5.6-1.5,1.5-1.5,1.5.6,1.5,1.5Z"/>
    <path class="cls-1" d="M278,26.5h-18.5v-2.1h12.4v-.9c0-2.1,0-3.6-.6-4.6-.6-1.5-1.8-2.4-3.6-2.4s-3,.6-4.2,2.1l-1.8-1.8c1.8-1.8,3.9-2.7,6.1-2.7s4.6.9,5.8,3c.6,1.5,1.2,3.3,1.2,6.1v.9h3.3s0,2.4,0,2.4Z"/>
    <path class="cls-1" d="M301.7,26.5h-24.3v-2.4h3.3v-7l2.7-.6v5.8c.3-1.5.9-2.7,1.8-3.9,1.8-2.7,4.2-3.9,7.3-3.9s4.6.9,6.1,3c.9,1.5,1.2,3.9,1.2,6.7h2.4v2.4h-.6ZM296.8,24.4v-1.2c0-1.8-.3-3-.9-4.2-.9-1.2-2.1-2.1-3.6-2.1s-3.6.9-5.5,2.7c-1.5,1.5-2.1,3.3-2.4,4.9h12.4Z"/>
    <path class="cls-1" d="M308,21.7c0,1.5-.6,2.4-1.5,3.3s-2.1,1.5-3.6,1.5h-1.8v-2.4h1.5c1.8,0,2.7-.9,2.7-2.7v-11.8l2.7-.9v13Z"/>
    <path class="cls-1" d="M313.2,26.5h-2.7V9.5l2.7-.9v17.9Z"/>
    <path class="cls-1" d="M339.6,22c0,3-1.8,4.9-5.2,4.9h-9.7c-3,0-4.9-1.8-4.9-4.9v-2.7l2.7-2.7v5.2c0,1.8.9,2.7,2.7,2.7h9.4c1.8,0,2.7-.9,2.7-2.7v-6.7l2.4-.6v7.6h-.3ZM329.3,14.4c0,.9-.6,1.5-1.5,1.5s-1.5-.6-1.5-1.5.6-1.5,1.5-1.5,1.5.6,1.5,1.5ZM333.2,14.4c0,.9-.6,1.5-1.5,1.5s-1.5-.6-1.5-1.5.6-1.5,1.5-1.5,1.5.6,1.5,1.5Z"/>
    <path class="cls-1" d="M348.7,26.5h-3c-2.4,0-3.6-1.5-3.6-3.6v-13.4l2.7-.9v14c0,.9.3,1.2,1.2,1.2h2.7v2.7Z"/>
    <path class="cls-1" d="M362.4,20.7c0,1.5-.3,3-1.2,3.9-.9,1.2-2.4,1.8-4.2,1.8s-2.7-.6-3.9-1.5c-.9.9-2.1,1.5-3.9,1.5h-1.2v-2.1h1.2c1.8,0,2.7-.9,2.7-2.7v-.9c0-1.8.3-3,1.2-3.9.9-1.2,2.4-1.8,4.2-1.8s3.3.6,4.2,1.8c.6.9,1.2,2.4,1.2,3.9h-.3ZM359.6,20.7c0-2.4-.9-3.6-2.7-3.6s-2.7,1.2-2.7,3.6.9,3.6,2.7,3.6,2.7-1.2,2.7-3.6Z"/>
    <path class="cls-1" d="M379.3,26.5h-14.6l1.5-2.1h6.7v-5.2c0-1.8-.9-2.7-2.7-2.7s-2.7.9-3.6,2.4v-3c1.2-1.2,2.4-1.5,3.6-1.5s3,.3,3.9,1.2,1.5,2.1,1.5,3.3v5.5h3.6v2.4-.3Z"/>
    <path class="cls-1" d="M396.9,26.5h-18.5v-2.1h12.4v-.9c0-2.1,0-3.6-.6-4.6-.6-1.5-1.8-2.4-3.6-2.4s-3,.6-4.2,2.1l-1.8-1.8c1.8-1.8,3.9-2.7,6.1-2.7s4.6.9,5.8,3c.6,1.5,1.2,3.3,1.2,6.1v.9h3.3v2.4ZM388.1,10.4c0,.9-.6,1.5-1.5,1.5s-1.5-.6-1.5-1.5.6-1.5,1.5-1.5,1.5.6,1.5,1.5Z"/>
    <path class="cls-1" d="M408.2,26.5h-1.8c-1.5,0-2.7-.6-3.9-1.5-.9.9-2.1,1.5-3.9,1.5h-2.1v-2.4h2.1c1.8,0,2.7-.9,2.7-2.7v-11.8l2.7-.9v12.7c0,1.8.9,2.7,2.7,2.7h1.5v2.4h0Z"/>
    <path class="cls-1" d="M414.2,21.7c0,1.5-.6,2.4-1.5,3.3s-2.1,1.5-3.6,1.5h-1.8v-2.4h1.5c1.8,0,2.7-.9,2.7-2.7v-11.8l2.7-.9v13Z"/>
    <path class="cls-1" d="M440.9,22c0,3-1.8,4.9-5.2,4.9h-9.7c-3,0-4.9-1.8-4.9-4.9v-2.7l2.7-2.7v5.2c0,1.8.9,2.7,2.7,2.7h9.4c1.8,0,2.7-.9,2.7-2.7v-6.7l2.4-.6v7.6h-.3ZM430.6,14.4c0,.9-.6,1.5-1.5,1.5s-1.5-.6-1.5-1.5.6-1.5,1.5-1.5,1.5.6,1.5,1.5ZM434.3,14.4c0,.9-.6,1.5-1.5,1.5s-1.5-.6-1.5-1.5.6-1.5,1.5-1.5,1.5.6,1.5,1.5Z"/>
    <path class="cls-1" d="M446.1,26.5h-2.7V9.5l2.7-.9v17.9Z"/>
    <path class="cls-1" d="M456.7,25.6c0,1.8-.6,3.3-1.8,4.6-1.2,1.2-2.7,1.8-4.6,1.8s-2.1,0-3-.6l-1.2-2.7c1.2.6,2.7.9,4.2.9s3.6-1.5,3.6-3.6v-10.9l2.7-.9v11.5h0Z"/>
    <path class="cls-1" d="M465.5,26.5h-3c-2.4,0-3.6-1.5-3.6-3.6v-13.4l2.7-.9v14c0,.9.3,1.2,1.2,1.2h2.7v2.7Z"/>
    <path class="cls-1" d="M479.2,20.7c0,1.5-.3,3-1.2,3.9-.9,1.2-2.4,1.8-4.2,1.8s-2.7-.6-3.9-1.5c-.9.9-2.1,1.5-3.9,1.5h-1.2v-2.1h1.2c1.8,0,2.7-.9,2.7-2.7v-.9c0-1.8.3-3,1.2-3.9.9-1.2,2.4-1.8,4.2-1.8s3.3.6,4.2,1.8c.6.9,1.2,2.4,1.2,3.9h-.3ZM476.7,20.7c0-2.4-.9-3.6-2.7-3.6s-2.7,1.2-2.7,3.6.9,3.6,2.7,3.6,2.7-1.2,2.7-3.6Z"/>
    <path class="cls-1" d="M494.6,21.7c0,1.5-.6,2.7-1.5,3.3-.9.9-2.1,1.5-3.6,1.5h-7.9l1.2-2.4h2.7v-13.7l2.7-.9v14.3h.9c1.8,0,2.7-.9,2.7-2.7v-12.1l2.7-.9v13.7ZM488.3,32h-4.6l.6-.9h.9v-.6c0-1.2.6-1.8,1.8-1.8s.9,0,1.2.6l-.6.9s-.3-.3-.6-.3-.6.3-.6.9v.6h2.1v.9l-.3-.3Z"/>
    <path class="cls-1" d="M499.5,26.5h-2.7V9.5l2.7-.9v17.9Z"/>
    <path class="cls-1" d="M521.6,26.5h-1.8c-2.1,0-3.6-.6-3.9-1.8-.6,1.2-2.1,1.8-3.9,1.8-3.6,0-5.2-2.1-5.2-6.4s1.8-6.1,5.2-6.1h5.5v7.3c0,1.8.9,2.7,2.7,2.7h1.5v2.4ZM514.7,16.2h-2.7c-1.2,0-1.8.3-2.1,1.2-.3.6-.6,1.5-.6,3s0,2.4.6,3c.3.6,1.2,1.2,2.1,1.2s1.8-.3,2.1-1.2c.3-.6.6-1.5.6-3v-4.2ZM512.2,10.4c0,.9-.6,1.5-1.5,1.5s-1.5-.6-1.5-1.5.6-1.5,1.5-1.5,1.5.6,1.5,1.5ZM515.9,10.4c0,.9-.6,1.5-1.5,1.5s-1.5-.6-1.5-1.5.6-1.5,1.5-1.5,1.5.6,1.5,1.5Z"/>
    <path class="cls-1" d="M545.9,26.5h-24.9v-2.4h3.3v-7l2.7-.6v7.6h5.5v-8.2l2.7-.9v8.8h5.5v-9.4l2.7-.9v10h3v2.4l-.6.6Z"/>
    <path class="cls-1" d="M567.5,22c0,2.7-2.1,4.9-5.2,4.9h-16.7v-2.4h3.3v-7l2.7-.6v7.9h5.5v-8.2l2.7-.9v8.8h2.7c1.8,0,2.7-.9,2.7-2.7v-6.7l2.7-.9v7.6l-.6.3Z"/>
    <path class="cls-1" d="M583.5,26.5h-3.3c0,1.5-.9,2.7-1.8,3.6-.9,1.2-2.4,1.5-3.9,1.5s-2.4,0-3.3-.6l-1.2-2.4c1.5.6,3,.9,4.2.9,1.8,0,3-1.5,3.3-3h-2.1c-1.8,0-3.3-.6-4.2-1.5-.9-.9-1.5-2.4-1.5-3.9s.3-3.3,1.2-4.2c.9-1.2,2.4-2.1,4.2-2.1,3.3,0,5.2,2.1,5.2,6.4s0,2.1,0,3.3h3v2.1h.3ZM578.4,13.2h-7.9l1.2-1.5h1.2v-.6c0-1.8,1.2-3.3,3-3.3s1.5.3,2.1.9l-1.2,1.2c-.3-.6-.9-.6-1.2-.6-.9,0-1.5.6-1.5,1.8v.6h3.9v1.5h.3ZM577.8,21.1c0-1.2,0-2.1-.3-2.7-.3-.9-1.2-1.5-2.4-1.5-1.8,0-2.7,1.5-2.7,4.2s.9,3.3,3,3.3h2.4v-3.3Z"/>
    <path class="cls-1" d="M597.2,20.7c0,1.5-.3,3-1.2,3.9-.9,1.2-2.4,1.8-4.2,1.8s-2.7-.6-3.9-1.5c-.9.9-2.1,1.5-3.9,1.5h-1.2v-2.1h1.2c1.8,0,2.7-.9,2.7-2.7v-.9c0-1.8.3-3,1.2-3.9.9-1.2,2.4-1.8,4.2-1.8s3.3.6,4.2,1.8c.6.9,1.2,2.4,1.2,3.9h-.3ZM594.5,20.7c0-2.4-.9-3.6-2.7-3.6s-2.7,1.2-2.7,3.6.9,3.6,2.7,3.6,2.7-1.2,2.7-3.6Z"/>
  </g>
  <g class="cls-3">
    <path class="cls-2" d="M235.8,43.5h14.9v3h-11.8v7h10.9v3h-10.9v7.3h12.4v3h-15.5v-23.4Z"/>
    <path class="cls-2" d="M254.9,51.1h2.7v2.4h0s0-.6.6-.9c0-.3.6-.6.9-.9.3,0,.9-.6,1.5-.6s1.2-.3,1.8-.3c1.2,0,2.1,0,3,.6s1.5,1.2,1.8,2.1c.6-.9,1.2-1.8,2.1-2.1.9-.6,1.8-.6,2.7-.6s2.1,0,3,.6c.9.3,1.2.9,1.8,1.5.3.6.6,1.5.9,2.1v11.5h-3v-10.3c0-.6,0-.9-.6-1.5,0-.3-.6-.6-.9-.9-.3,0-.9-.3-1.8-.3-1.5,0-2.4.3-3,1.2s-.9,2.1-.9,3.3v8.5h-3v-10.3c0-.6,0-1.2-.6-1.5,0-.3-.6-.9-.9-.9s-.9-.3-1.8-.3-.9,0-1.5.3c-.6,0-.9.6-1.2.9-.3.3-.6.9-.9,1.5,0,.6-.3,1.5-.3,2.1v7.9h-3v-15.5l.6.3Z"/>
    <path class="cls-2" d="M282.6,45.6c0-.6,0-1.2.6-1.5.3-.3.9-.6,1.5-.6s1.2,0,1.5.6c.3.3.6.9.6,1.5s0,1.2-.6,1.5c-.3.3-.9.6-1.5.6s-1.2,0-1.5-.6c-.3-.3-.6-.9-.6-1.5ZM283.2,51.1h3v15.5h-3v-15.5Z"/>
    <path class="cls-2" d="M290.7,51.1h3v2.4h0c0-.3.6-.9.9-1.2.3-.3.6-.6,1.2-.9.3,0,.9-.3,1.2-.6h2.7v3h-1.5c-1.5,0-2.4.3-3.3,1.2-.9.9-1.2,2.1-1.2,3.6v7.9h-3s0-15.5,0-15.5Z"/>
    <path class="cls-2" d="M302.9,53.2c.9-.9,1.8-1.2,2.7-1.8,1.2-.3,2.1-.6,3.3-.6s2.1,0,3,.3c.9,0,1.5.6,2.1,1.2.6.6.9.9,1.2,1.5,0,.6.3,1.2.3,1.8v10.6h-2.7v-2.4h0c-.6.9-1.5,1.8-2.4,2.1s-1.8.6-3,.6h-2.1c-.6,0-1.2-.6-1.8-.9-.6-.3-.9-.9-1.2-1.5,0-.6-.3-1.2-.3-2.1s0-1.8.6-2.4c.3-.6.9-1.2,1.8-1.5.9-.3,1.8-.6,2.7-.9h5.5v-1.8c0-.3-.3-.6-.6-.9-.3-.3-.6-.6-1.2-.6h-3c-.3,0-.9,0-1.2.3-.3,0-.6.3-.9.6,0,0-.6.3-.9.6l-1.8-1.8v-.3ZM311.1,59.3h-2.1c-.6,0-1.5,0-2.1.3-.6,0-1.2.6-1.5.9-.3.3-.6.9-.6,1.5,0,.9,0,1.5.9,1.8.6.3,1.5.6,2.4.6s1.5,0,2.1-.3c.6,0,.9-.6,1.5-.9.3-.3.6-.9.6-1.5v-2.4h-1.5.3Z"/>
    <path class="cls-2" d="M328.1,53.8h-4.2v9.4c0,.3.3.6.6.9,0,0,.6.3,1.2.3h1.2c.3,0,.6,0,.9-.3v2.7c-.3,0-.9.3-1.2.3h-1.2c-1.2,0-2.1,0-2.7-.6s-1.2-.6-1.5-1.2c0-.6-.6-.9-.6-1.8v-10h-3.3v-2.4h3.3v-4.2h3v4.2h4.2v2.4l.3.3Z"/>
    <path class="cls-2" d="M334.1,59.9c0,.6,0,1.2.3,1.8,0,.6.6.9,1.2,1.5.6.3.9.6,1.5.9.6,0,1.2.3,1.8.3s1.8,0,2.4-.6c.6-.3,1.2-.9,1.8-1.8l2.1,1.8c-1.5,2.1-3.9,3-7,3s-2.4,0-3.3-.6c-.9-.3-1.8-.9-2.4-1.8-.6-.6-1.2-1.5-1.5-2.7-.3-.9-.6-2.1-.6-3.3s0-2.1.6-3.3c.3-.9.9-1.8,1.5-2.7.6-.6,1.5-1.2,2.4-1.8.9-.3,2.1-.6,3.3-.6s2.4,0,3.3.6c.9.6,1.8,1.2,2.4,1.8.6.9.9,1.5,1.2,2.7,0,.9.3,1.8.3,3v.9h-12.4l.9.9ZM343.2,57.8c0-.6,0-1.2-.3-1.8,0-.6-.6-.9-.9-1.5-.3-.3-.9-.6-1.5-.9-.6,0-1.2-.3-1.8-.3s-1.5,0-2.1.3c-.6,0-1.2.6-1.5.9-.3.3-.6.9-.9,1.5,0,.6-.3.9-.3,1.5h9.4v.3Z"/>
    <path class="cls-2" d="M358.1,55c-.3-.3-.9-.9-1.2-1.2-.6,0-1.2-.3-1.8-.3s-1.2,0-1.8.3c-.6,0-.9.6-.9,1.2s0,.9.3,1.2c0,0,.6.6.9.6s.9.3,1.2.3h1.2c.6,0,1.2.3,1.8.6.6,0,.9.6,1.5.9.3.3.6.9.9,1.2,0,.6.3,1.2.3,1.8s0,1.5-.6,2.1c-.3.6-.9,1.2-1.5,1.5s-1.2.6-2.1.9h-2.1c-1.2,0-2.4,0-3.3-.6-.9-.3-1.8-1.2-2.7-2.1l2.1-1.8c.6.6.9.9,1.5,1.2s1.2.6,2.1.6h1.2c.3,0,.6,0,.9-.3,0,0,.6-.3.6-.6v-.9c0-.3,0-.9-.3-1.2,0,0-.6-.6-.9-.6s-.9,0-1.2-.3h-1.2c-.6,0-1.2-.3-1.8-.6s-1.2-.6-1.5-.9c-.3-.3-.9-.6-.9-1.2s-.3-1.2-.3-1.8,0-1.5.6-2.1c.3-.6.9-1.2,1.2-1.5.6-.3,1.2-.6,1.8-.9h2.1c.9,0,2.1,0,3,.6.9.3,1.8.9,2.4,1.8l-2.4,1.8.9.3Z"/>
    <path class="cls-2" d="M374.2,43.5h3v9.7h11.8v-9.7h3v23.1h-3v-10.6h-11.8v10.6h-3s0-23.1,0-23.1Z"/>
    <path class="cls-2" d="M400,59.9c0,.6,0,1.2.3,1.8,0,.6.6.9,1.2,1.5.6.3.9.6,1.5.9.6,0,1.2.3,1.8.3s1.8,0,2.4-.6c.6-.3,1.2-.9,1.8-1.8l2.1,1.8c-1.5,2.1-3.9,3-7,3s-2.4,0-3.3-.6c-.9-.3-1.8-.9-2.4-1.8-.6-.6-1.2-1.5-1.5-2.7-.3-.9-.6-2.1-.6-3.3s0-2.1.6-3.3c.3-.9.9-1.8,1.5-2.7.6-.6,1.5-1.2,2.4-1.8.9-.3,2.1-.6,3.3-.6s2.4,0,3.3.6,1.8,1.2,2.4,1.8c.6.9.9,1.5,1.2,2.7,0,.9.3,1.8.3,3v.9h-12.4l.9.9ZM409.4,57.8c0-.6,0-1.2-.3-1.8,0-.6-.6-.9-.9-1.5-.3-.3-.9-.6-1.5-.9-.6,0-1.2-.3-1.8-.3s-1.5,0-2.1.3c-.6,0-1.2.6-1.5.9-.3.3-.6.9-.9,1.5,0,.6-.3.9-.3,1.5h9.4v.3Z"/>
    <path class="cls-2" d="M416.1,53.2c.9-.9,1.8-1.2,2.7-1.8,1.2-.3,2.1-.6,3.3-.6s2.1,0,3,.3c.9,0,1.5.6,2.1,1.2.6.6.9.9,1.2,1.5,0,.6.3,1.2.3,1.8v10.6h-2.7v-2.4h0c-.6.9-1.5,1.8-2.4,2.1s-1.8.6-3,.6h-2.1c-.6,0-1.2-.6-1.8-.9-.6-.3-.9-.9-1.2-1.5,0-.6-.3-1.2-.3-2.1s0-1.8.6-2.4c.3-.6.9-1.2,1.8-1.5s1.8-.6,2.7-.9h5.5v-1.8c0-.3-.3-.6-.6-.9-.3-.3-.6-.6-1.2-.6h-3c-.3,0-.9,0-1.2.3-.3,0-.6.3-.9.6,0,0-.6.3-.9.6l-1.8-1.8v-.3ZM424.3,59.3h-2.1c-.6,0-1.5,0-2.1.3-.6,0-1.2.6-1.5.9-.3.3-.6.9-.6,1.5,0,.9,0,1.5.9,1.8.6.3,1.5.6,2.4.6s1.5,0,2.1-.3c.6,0,.9-.6,1.5-.9.3-.3.6-.9.6-1.5v-2.4h-1.5.3Z"/>
    <path class="cls-2" d="M433,42h3v24.6h-3v-24.6Z"/>
    <path class="cls-2" d="M449.1,53.8h-4.2v9.4c0,.3.3.6.6.9,0,0,.6.3,1.2.3h1.2c.3,0,.6,0,.9-.3v2.7c-.3,0-.9.3-1.2.3h-1.2c-1.2,0-2.1,0-2.7-.6s-1.2-.6-1.5-1.2c0-.6-.6-.9-.6-1.8v-10h-3.3v-2.4h3.3v-4.2h3v4.2h4.2v2.4l.3.3Z"/>
    <path class="cls-2" d="M452.8,42h3v11.5h0c.3-.9.9-1.5,1.8-2.1s1.8-.9,3-.9,1.5,0,2.1.3c.6,0,1.2.6,1.8.9.6.6.9,1.2,1.2,1.8.3.6.6,1.5.6,2.7v10h-3v-10.9c0-.6-.6-.9-.9-1.2s-.6-.6-1.2-.6h-3c-.6,0-.9.6-1.5.9-.3.3-.6.9-.9,1.5,0,.6-.3,1.5-.3,2.4v7.9h-3v-24.6l.3.3Z"/>
    <path class="cls-2" d="M481.6,61.7c.6.9,1.2,1.5,2.1,1.8s1.8.6,2.7.6h1.5c.6,0,.9-.3,1.5-.6.3-.3.9-.6,1.2-1.2,0-.6.3-.9.3-1.5s0-1.5-.9-2.1c-.6-.6-1.2-.9-2.1-1.2s-1.8-.6-2.7-.9c-.9,0-1.8-.6-2.7-1.2-.9-.6-1.5-1.2-2.1-2.1-.6-.9-.9-2.1-.9-3.6s0-1.5.3-2.1c0-.9.6-1.5,1.5-2.1.6-.6,1.5-1.2,2.4-1.5s2.1-.6,3.6-.6,2.4,0,3.6.6c1.2.3,2.1.9,3,2.1l-2.4,2.4c-.3-.6-.9-1.2-1.5-1.5s-1.5-.6-2.4-.6-1.5,0-2.1.3c-.6,0-.9.6-1.5.9-.3.3-.6.6-.6,1.2v1.2c0,.9,0,1.8.9,2.1.6.6,1.2.9,2.1,1.2s1.8.6,2.7.9c.9,0,1.8.6,2.7,1.2.9.6,1.5,1.2,2.1,1.8.6.9.9,1.8.9,3.3s0,2.1-.6,3c-.3.9-.9,1.5-1.8,2.1-.6.6-1.5,1.2-2.4,1.5s-2.1.6-3,.6-3,0-4.2-.9c-1.2-.6-2.4-1.2-3-2.4l2.7-2.1-.9-.6Z"/>
    <path class="cls-2" d="M500.4,59.9c0,.6,0,1.2.3,1.8,0,.6.6.9,1.2,1.5.6.3.9.6,1.5.9.6,0,1.2.3,1.8.3s1.8,0,2.4-.6c.6-.3,1.2-.9,1.8-1.8l2.1,1.8c-1.5,2.1-3.9,3-7,3s-2.4,0-3.3-.6c-.9-.3-1.8-.9-2.4-1.8-.6-.6-1.2-1.5-1.5-2.7-.3-.9-.6-2.1-.6-3.3s0-2.1.6-3.3c.3-.9.9-1.8,1.5-2.7.6-.6,1.5-1.2,2.4-1.8.9-.3,2.1-.6,3.3-.6s2.4,0,3.3.6,1.8,1.2,2.4,1.8c.6.9.9,1.5,1.2,2.7,0,.9.3,1.8.3,3v.9h-12.4l.9.9ZM509.8,57.8c0-.6,0-1.2-.3-1.8,0-.6-.6-.9-.9-1.5-.3-.3-.9-.6-1.5-.9-.6,0-1.2-.3-1.8-.3s-1.5,0-2.1.3c-.6,0-1.2.6-1.5.9-.3.3-.6.9-.9,1.5,0,.6-.3.9-.3,1.5h9.4v.3Z"/>
    <path class="cls-2" d="M516.5,51.1h3v2.4h0c0-.3.6-.9.9-1.2s.6-.6,1.2-.9c.3,0,.9-.3,1.2-.6h2.7v3h-1.5c-1.5,0-2.4.3-3.3,1.2s-1.2,2.1-1.2,3.6v7.9h-3v-15.5h0Z"/>
    <path class="cls-2" d="M526.5,51.1h3.3l4.6,11.8,4.6-11.8h3l-6.1,15.5h-3.3l-6.4-15.5h.3Z"/>
    <path class="cls-2" d="M544.4,45.6c0-.6,0-1.2.6-1.5.3-.3.9-.6,1.5-.6s1.2,0,1.5.6c.3.3.6.9.6,1.5s0,1.2-.6,1.5c-.3.3-.9.6-1.5.6s-1.2,0-1.5-.6c-.3-.3-.6-.9-.6-1.5ZM545,51.1h3v15.5h-3v-15.5Z"/>
    <path class="cls-2" d="M563.5,55.3c-.6-.6-1.2-.9-1.8-1.2-.6,0-1.2-.3-2.1-.3s-1.5,0-2.1.3c-.6,0-1.2.6-1.5,1.2-.3.6-.6,1.2-.9,1.8,0,.6-.3,1.2-.3,2.1s0,1.5.3,2.1c0,.6.6,1.2.9,1.8s.9.9,1.5,1.2c.6,0,1.2.3,2.1.3s1.5,0,2.1-.3,1.2-.6,1.5-1.2l2.1,2.1c-.9.9-1.5,1.5-2.7,1.8-.9.3-2.1.6-3.3.6s-2.4,0-3.3-.6c-.9-.3-1.8-.9-2.4-1.5s-1.2-1.5-1.5-2.4-.6-2.1-.6-3.3,0-2.4.6-3.3c.3-.9.9-1.8,1.5-2.7.6-.6,1.5-1.2,2.4-1.8.9-.3,2.1-.6,3.3-.6s2.1,0,3.3.6c.9.3,1.8.9,2.7,1.8l-2.1,2.1.3-.6Z"/>
    <path class="cls-2" d="M570.5,59.9c0,.6,0,1.2.3,1.8,0,.6.6.9,1.2,1.5.6.3.9.6,1.5.9.6,0,1.2.3,1.8.3s1.8,0,2.4-.6c.6-.3,1.2-.9,1.8-1.8l2.1,1.8c-1.5,2.1-3.9,3-7,3s-2.4,0-3.3-.6c-.9-.3-1.8-.9-2.4-1.8-.6-.6-1.2-1.5-1.5-2.7-.3-.9-.6-2.1-.6-3.3s0-2.1.6-3.3c.3-.9.9-1.8,1.5-2.7.6-.6,1.5-1.2,2.4-1.8.9-.3,2.1-.6,3.3-.6s2.4,0,3.3.6,1.8,1.2,2.4,1.8c.6.9.9,1.5,1.2,2.7,0,.9.3,1.8.3,3v.9h-12.4l.9.9ZM579.9,57.8c0-.6,0-1.2-.3-1.8,0-.6-.6-.9-.9-1.5-.3-.3-.9-.6-1.5-.9-.6,0-1.2-.3-1.8-.3s-1.5,0-2.1.3c-.6,0-1.2.6-1.5.9-.3.3-.6.9-.9,1.5,0,.6-.3.9-.3,1.5h9.4v.3Z"/>
    <path class="cls-2" d="M594.8,55c-.3-.3-.9-.9-1.2-1.2-.6,0-1.2-.3-1.8-.3s-1.2,0-1.8.3c-.6,0-.9.6-.9,1.2s0,.9.3,1.2c0,0,.6.6.9.6s.9.3,1.2.3h1.2c.6,0,1.2.3,1.8.6.6,0,.9.6,1.5.9.3.3.6.9.9,1.2,0,.6.3,1.2.3,1.8s0,1.5-.6,2.1c-.3.6-.9,1.2-1.5,1.5s-1.2.6-2.1.9h-2.1c-1.2,0-2.4,0-3.3-.6-.9-.3-1.8-1.2-2.7-2.1l2.1-1.8c.6.6.9.9,1.5,1.2s1.2.6,2.1.6h1.2c.3,0,.6,0,.9-.3,0,0,.6-.3.6-.6v-.9c0-.3,0-.9-.3-1.2,0,0-.6-.6-.9-.6s-.9,0-1.2-.3h-1.2c-.6,0-1.2-.3-1.8-.6s-1.2-.6-1.5-.9c-.3-.3-.9-.6-.9-1.2s-.3-1.2-.3-1.8,0-1.5.6-2.1c.3-.6.9-1.2,1.2-1.5.6-.3,1.2-.6,1.8-.9h2.1c.9,0,2.1,0,3,.6.9.3,1.8.9,2.4,1.8l-2.4,1.8.9.3Z"/>
  </g>
  <g>
    <polygon class="cls-2" points="123.9 31.4 82.9 31.4 82.9 5.3 72 5.3 72 72.3 82.9 72.3 82.9 42.6 123.9 42.6 123.9 72.3 135.1 72.3 135.1 5.3 123.9 5.3 123.9 31.4"/>
    <path class="cls-2" d="M2.5,15.9v56.4h61v-11.2H13.4v-18.5h49.8v-11.2H13.4v-5.2s-.6-7.3,3.3-10.3h46.7V4.7H13.7c-6.1,0-11.2,4.9-11.2,11.2Z"/>
    <path class="cls-2" d="M153,16.5h51.9V5.3h-50.4s-13.4.9-13.4,16.4,1.5,19.4,11.8,20.6h37.6s4.9-.3,4.6,9.1c0,10.3-4.2,9.1-4.2,9.1h-48.5v11.2h48.5s11.2-1.2,13-10.6c1.8-9.4.3-18.8.3-18.8,0,0-1.5-10.9-13.4-11.2h-37.3s-3-.6-3-4.2,0-10,2.7-10.6l-.3.3Z"/>
  </g>
  <rect class="cls-2" x="218.5" y="7.4" width="1.8" height="62.2"/>
</svg>