<?xml version="1.0" encoding="UTF-8"?>
<svg id="Layer_1" data-name="Layer 1" xmlns="http://www.w3.org/2000/svg" version="1.1" viewBox="0 0 200 35.3">
  <defs>
    <style>
      .cls-1 {
        fill: #36577f;
      }

      .cls-1, .cls-2 {
        stroke-width: 0px;
      }

      .cls-2 {
        fill: #335276;
      }

      .cls-3 {
        isolation: isolate;
      }
    </style>
  </defs>
  <g class="cls-3">
    <path class="cls-1" d="M83.4,13.7h-.6c-.7,0-1.2-.2-1.3-.6-.2.4-.7.6-1.3.6-1.2,0-1.7-.7-1.7-2.1s.6-2,1.7-2h1.8v2.4c0,.6.3.9.9.9h.5v.7ZM81.1,10.3h-.9c-.4,0-.6.1-.7.4-.1.2-.2.5-.2,1s0,.8.2,1c.1.2.4.4.7.4s.6-.1.7-.4c.1-.2.2-.5.2-1v-1.3ZM80.3,8.4c0,.3-.2.5-.5.5s-.5-.2-.5-.5.2-.5.5-.5.5.2.5.5ZM81.5,8.4c0,.3-.2.5-.5.5s-.5-.2-.5-.5.2-.5.5-.5.5.2.5.5Z"/>
    <path class="cls-1" d="M86.9,13.7h-.5c-.5,0-1-.2-1.3-.5-.3.3-.7.5-1.3.5h-.7v-.7h.6c.6,0,.9-.3.9-.9v-2.2l.9-.3v2.4c0,.6.3.9.9.9h.5v.7ZM85,15c0,.3-.2.5-.5.5s-.5-.2-.5-.5.2-.5.5-.5.5.2.5.5ZM86.2,15c0,.3-.2.5-.5.5s-.5-.2-.5-.5.2-.5.5-.5.5.2.5.5Z"/>
    <path class="cls-1" d="M92.8,13.7h-6.1v-.7h4.1v-.3c0-.7,0-1.2-.2-1.5-.2-.5-.6-.8-1.2-.8s-1,.2-1.4.7l-.6-.6c.6-.6,1.3-.9,2-.9s1.5.3,1.9,1c.2.5.4,1.1.4,2v.3h1.1v.8Z"/>
    <path class="cls-1" d="M100.6,13.7h-8v-.8h1.1v-2.3l.9-.2v1.9c.1-.5.3-.9.6-1.3.6-.9,1.4-1.3,2.4-1.3.9,0,1.5.3,2,1,.3.5.4,1.3.4,2.2h.8v.8ZM99,13c0-.1,0-.3,0-.4,0-.6-.1-1-.3-1.4-.3-.4-.7-.7-1.2-.7s-1.2.3-1.8.9c-.5.5-.7,1.1-.8,1.6h4Z"/>
    <path class="cls-1" d="M102.7,12.1c0,.5-.2.8-.5,1.1-.3.3-.7.5-1.2.5h-.6v-.8h.5c.6,0,.9-.3.9-.9v-3.9l.9-.3v4.2Z"/>
    <path class="cls-1" d="M104.4,13.7h-.9v-5.6l.9-.3v5.8Z"/>
    <path class="cls-1" d="M113.1,12.2c0,1-.6,1.6-1.7,1.6h-3.2c-1,0-1.6-.6-1.6-1.6v-.9l.9-.9v1.7c0,.6.3.9.9.9h3.1c.6,0,.9-.3.9-.9v-2.2l.8-.2v2.5ZM109.7,9.7c0,.3-.2.5-.5.5s-.5-.2-.5-.5.2-.5.5-.5.5.2.5.5ZM111,9.7c0,.3-.2.5-.5.5s-.5-.2-.5-.5.2-.5.5-.5.5.2.5.5Z"/>
    <path class="cls-1" d="M116.1,13.7h-1c-.8,0-1.2-.5-1.2-1.2v-4.4l.9-.3v4.6c0,.3.1.4.4.4h.9v.8Z"/>
    <path class="cls-1" d="M120.6,11.8c0,.5-.1,1-.4,1.3-.3.4-.8.6-1.4.6s-.9-.2-1.3-.5c-.3.3-.7.5-1.3.5h-.4v-.7h.4c.6,0,.9-.3.9-.9v-.3c0-.6.1-1,.4-1.3.3-.4.8-.6,1.4-.6s1.1.2,1.4.6c.2.3.4.8.4,1.3ZM119.7,11.8c0-.8-.3-1.2-.9-1.2s-.9.4-.9,1.2.3,1.2.9,1.2.9-.4.9-1.2Z"/>
    <path class="cls-1" d="M126.2,13.7h-4.8l.5-.7h2.2v-1.7c0-.6-.3-.9-.9-.9s-.9.3-1.2.8v-1c.4-.4.8-.5,1.2-.5s1,.1,1.3.4.5.7.5,1.1v1.8h1.2v.8Z"/>
    <path class="cls-1" d="M132,13.7h-6.1v-.7h4.1v-.3c0-.7,0-1.2-.2-1.5-.2-.5-.6-.8-1.2-.8s-1,.2-1.4.7l-.6-.6c.6-.6,1.3-.9,2-.9s1.5.3,1.9,1c.2.5.4,1.1.4,2v.3h1.1v.8ZM129.1,8.4c0,.3-.2.5-.5.5s-.5-.2-.5-.5.2-.5.5-.5.5.2.5.5Z"/>
    <path class="cls-1" d="M135.7,13.7h-.6c-.5,0-.9-.2-1.3-.5-.3.3-.7.5-1.3.5h-.7v-.8h.7c.6,0,.9-.3.9-.9v-3.9l.9-.3v4.2c0,.6.3.9.9.9h.5v.8Z"/>
    <path class="cls-1" d="M137.7,12.1c0,.5-.2.8-.5,1.1-.3.3-.7.5-1.2.5h-.6v-.8h.5c.6,0,.9-.3.9-.9v-3.9l.9-.3v4.2Z"/>
    <path class="cls-1" d="M146.5,12.2c0,1-.6,1.6-1.7,1.6h-3.2c-1,0-1.6-.6-1.6-1.6v-.9l.9-.9v1.7c0,.6.3.9.9.9h3.1c.6,0,.9-.3.9-.9v-2.2l.8-.2v2.5ZM143.1,9.7c0,.3-.2.5-.5.5s-.5-.2-.5-.5.2-.5.5-.5.5.2.5.5ZM144.3,9.7c0,.3-.2.5-.5.5s-.5-.2-.5-.5.2-.5.5-.5.5.2.5.5Z"/>
    <path class="cls-1" d="M148.2,13.7h-.9v-5.6l.9-.3v5.8Z"/>
    <path class="cls-1" d="M151.7,13.4c0,.6-.2,1.1-.6,1.5-.4.4-.9.6-1.5.6s-.7,0-1-.2l-.4-.9c.4.2.9.3,1.4.3.7,0,1.2-.5,1.2-1.2v-3.6l.9-.3v3.8Z"/>
    <path class="cls-1" d="M154.6,13.7h-1c-.8,0-1.2-.5-1.2-1.2v-4.4l.9-.3v4.6c0,.3.1.4.4.4h.9v.8Z"/>
    <path class="cls-1" d="M159.1,11.8c0,.5-.1,1-.4,1.3-.3.4-.8.6-1.4.6s-.9-.2-1.3-.5c-.3.3-.7.5-1.3.5h-.4v-.7h.4c.6,0,.9-.3.9-.9v-.3c0-.6.1-1,.4-1.3.3-.4.8-.6,1.4-.6s1.1.2,1.4.6c.2.3.4.8.4,1.3ZM158.3,11.8c0-.8-.3-1.2-.9-1.2s-.9.4-.9,1.2.3,1.2.9,1.2.9-.4.9-1.2Z"/>
    <path class="cls-1" d="M164.2,12.1c0,.5-.2.9-.5,1.1-.3.3-.7.5-1.2.5h-2.6l.4-.8h.9v-4.5l.9-.3v4.7h.3c.6,0,.9-.3.9-.9v-4l.9-.3v4.3ZM162.1,15.5h-1.5l.2-.3h.3v-.2c0-.4.2-.6.6-.6s.3,0,.4.2l-.2.3c0,0-.1-.1-.2-.1-.1,0-.2.1-.2.3v.2h.7v.3Z"/>
    <path class="cls-1" d="M165.8,13.7h-.9v-5.6l.9-.3v5.8Z"/>
    <path class="cls-1" d="M173.1,13.7h-.6c-.7,0-1.2-.2-1.3-.6-.2.4-.7.6-1.3.6-1.2,0-1.7-.7-1.7-2.1s.6-2,1.7-2h1.8v2.4c0,.6.3.9.9.9h.5v.7ZM170.8,10.3h-.9c-.4,0-.6.1-.7.4-.1.2-.2.5-.2,1s0,.8.2,1c.1.2.4.4.7.4s.6-.1.7-.4c.1-.2.2-.5.2-1v-1.3ZM170,8.4c0,.3-.2.5-.5.5s-.5-.2-.5-.5.2-.5.5-.5.5.2.5.5ZM171.2,8.4c0,.3-.2.5-.5.5s-.5-.2-.5-.5.2-.5.5-.5.5.2.5.5Z"/>
    <path class="cls-1" d="M181.1,13.7h-8.2v-.8h1.1v-2.3l.9-.2v2.5h1.8v-2.7l.9-.3v2.9h1.8v-3.1l.9-.3v3.3h1v.8Z"/>
    <path class="cls-1" d="M188.2,12.2c0,.9-.7,1.6-1.7,1.6h-5.5v-.8h1.1v-2.3l.9-.2v2.6h1.8v-2.7l.9-.3v2.9h.9c.6,0,.9-.3.9-.9v-2.2l.9-.3v2.5Z"/>
    <path class="cls-1" d="M193.5,13.7h-1.1c0,.5-.3.9-.6,1.2-.3.4-.8.5-1.3.5s-.8,0-1.1-.2l-.4-.8c.5.2,1,.3,1.4.3.6,0,1-.5,1.1-1h-.7c-.6,0-1.1-.2-1.4-.5-.3-.3-.5-.8-.5-1.3s.1-1.1.4-1.4c.3-.4.8-.7,1.4-.7,1.1,0,1.7.7,1.7,2.1s0,.7,0,1.1h1v.7ZM191.8,9.3h-2.6l.4-.5h.4v-.2c0-.6.4-1.1,1-1.1s.5.1.7.3l-.4.4c-.1-.2-.3-.2-.4-.2-.3,0-.5.2-.5.6v.2h1.3v.5ZM191.6,11.9c0-.4,0-.7-.1-.9-.1-.3-.4-.5-.8-.5-.6,0-.9.5-.9,1.4s.3,1.1,1,1.1h.8v-1.1Z"/>
    <path class="cls-1" d="M198,11.8c0,.5-.1,1-.4,1.3-.3.4-.8.6-1.4.6s-.9-.2-1.3-.5c-.3.3-.7.5-1.3.5h-.4v-.7h.4c.6,0,.9-.3.9-.9v-.3c0-.6.1-1,.4-1.3.3-.4.8-.6,1.4-.6s1.1.2,1.4.6c.2.3.4.8.4,1.3ZM197.1,11.8c0-.8-.3-1.2-.9-1.2s-.9.4-.9,1.2.3,1.2.9,1.2.9-.4.9-1.2Z"/>
  </g>
  <g class="cls-3">
    <path class="cls-2" d="M78.9,19.3h4.9v1h-3.9v2.3h3.6v1h-3.6v2.4h4.1v1h-5.1v-7.6Z"/>
    <path class="cls-2" d="M85.2,21.8h.9v.8h0c0,0,0-.2.2-.3,0-.1.2-.2.3-.3.1,0,.3-.2.5-.2.2,0,.4-.1.6-.1.4,0,.7,0,1,.2.3.2.5.4.6.7.2-.3.4-.6.7-.7.3-.2.6-.2.9-.2s.7,0,1,.2c.3.1.4.3.6.5.1.2.2.5.3.7,0,.3,0,.5,0,.8v3h-1v-2.8c0-.2,0-.4,0-.6,0-.2,0-.3-.2-.5,0-.1-.2-.2-.3-.3-.1,0-.3-.1-.6-.1-.5,0-.8.1-1,.4-.2.3-.3.7-.3,1.1v2.8h-1v-2.7c0-.2,0-.5,0-.7,0-.2,0-.4-.2-.5,0-.1-.2-.3-.3-.3-.1,0-.3-.1-.6-.1s-.3,0-.5.1c-.2,0-.3.2-.4.3-.1.1-.2.3-.3.5,0,.2-.1.5-.1.7v2.6h-1v-5.1Z"/>
    <path class="cls-2" d="M94.3,20c0-.2,0-.4.2-.5.1-.1.3-.2.5-.2s.4,0,.5.2c.1.1.2.3.2.5s0,.4-.2.5c-.1.1-.3.2-.5.2s-.4,0-.5-.2c-.1-.1-.2-.3-.2-.5ZM94.5,21.8h1v5.1h-1v-5.1Z"/>
    <path class="cls-2" d="M97,21.8h1v.8h0c0-.1.2-.3.3-.4.1-.1.2-.2.4-.3.1,0,.3-.1.4-.2.2,0,.3,0,.5,0s.3,0,.4,0v1c-.1,0-.2,0-.3,0,0,0-.2,0-.2,0-.5,0-.8.1-1.1.4-.3.3-.4.7-.4,1.2v2.6h-1v-5.1Z"/>
    <path class="cls-2" d="M101,22.5c.3-.3.6-.4.9-.6.4-.1.7-.2,1.1-.2s.7,0,1,.1c.3,0,.5.2.7.4.2.2.3.3.4.5,0,.2.1.4.1.6v2.6c0,.2,0,.3,0,.5,0,.2,0,.3,0,.4h-.9c0-.3,0-.5,0-.8h0c-.2.3-.5.6-.8.7-.3.1-.6.2-1,.2s-.5,0-.7,0c-.2,0-.4-.2-.6-.3-.2-.1-.3-.3-.4-.5,0-.2-.1-.4-.1-.7s0-.6.2-.8c.1-.2.3-.4.6-.5.3-.1.6-.2.9-.3.3,0,.7,0,1.1,0h.7v-.2c0-.1,0-.3,0-.4,0-.1-.1-.2-.2-.3-.1-.1-.2-.2-.4-.2-.2,0-.3,0-.5,0s-.3,0-.5,0c-.1,0-.3,0-.4.1-.1,0-.2.1-.3.2,0,0-.2.1-.3.2l-.6-.6ZM103.7,24.5c-.2,0-.5,0-.7,0-.2,0-.5,0-.7.1-.2,0-.4.2-.5.3-.1.1-.2.3-.2.5,0,.3,0,.5.3.6.2.1.5.2.8.2s.5,0,.7-.1c.2,0,.3-.2.5-.3.1-.1.2-.3.2-.5,0-.2,0-.3,0-.5v-.3h-.5Z"/>
    <path class="cls-2" d="M109.3,22.7h-1.4v2.3c0,.1,0,.3,0,.4,0,.1,0,.3,0,.4,0,.1.1.2.2.3,0,0,.2.1.4.1s.2,0,.4,0c.1,0,.2,0,.3-.1v.9c-.1,0-.3.1-.4.1-.2,0-.3,0-.4,0-.4,0-.7,0-.9-.2s-.4-.2-.5-.4c0-.2-.2-.3-.2-.6,0-.2,0-.4,0-.6v-2.7h-1.1v-.8h1.1v-1.4h1v1.4h1.4v.8Z"/>
    <path class="cls-2" d="M111.3,24.7c0,.2,0,.4.1.6,0,.2.2.3.4.5.2.1.3.2.5.3.2,0,.4.1.6.1s.6,0,.8-.2c.2-.1.4-.3.6-.6l.7.6c-.5.7-1.3,1-2.3,1s-.8,0-1.1-.2c-.3-.1-.6-.3-.8-.6-.2-.2-.4-.5-.5-.9-.1-.3-.2-.7-.2-1.1s0-.7.2-1.1c.1-.3.3-.6.5-.9.2-.2.5-.4.8-.6.3-.1.7-.2,1.1-.2s.8,0,1.1.2c.3.2.6.4.8.6.2.3.3.5.4.9,0,.3.1.6.1,1v.3h-4.1ZM114.3,24c0-.2,0-.4-.1-.6,0-.2-.2-.3-.3-.5-.1-.1-.3-.2-.5-.3-.2,0-.4-.1-.6-.1s-.5,0-.7.1c-.2,0-.4.2-.5.3-.1.1-.2.3-.3.5,0,.2-.1.3-.1.5h3.1Z"/>
    <path class="cls-2" d="M119.2,23.1c-.1-.1-.3-.3-.4-.4-.2,0-.4-.1-.6-.1s-.4,0-.6.1c-.2,0-.3.2-.3.4s0,.3.1.4c0,0,.2.2.3.2.1,0,.3.1.4.1.2,0,.3,0,.4,0,.2,0,.4.1.6.2.2,0,.3.2.5.3.1.1.2.3.3.4,0,.2.1.4.1.6s0,.5-.2.7c-.1.2-.3.4-.5.5-.2.1-.4.2-.7.3-.2,0-.5,0-.7,0-.4,0-.8,0-1.1-.2-.3-.1-.6-.4-.9-.7l.7-.6c.2.2.3.3.5.4.2.1.4.2.7.2s.2,0,.4,0c.1,0,.2,0,.3-.1,0,0,.2-.1.2-.2,0,0,0-.2,0-.3s0-.3-.1-.4c0,0-.2-.2-.3-.2-.1,0-.3,0-.4-.1-.1,0-.3,0-.4,0-.2,0-.4-.1-.6-.2s-.4-.2-.5-.3c-.1-.1-.3-.2-.3-.4,0-.2-.1-.4-.1-.6s0-.5.2-.7c.1-.2.3-.4.4-.5.2-.1.4-.2.6-.3.2,0,.5,0,.7,0,.3,0,.7,0,1,.2.3.1.6.3.8.6l-.8.6Z"/>
    <path class="cls-2" d="M124.5,19.3h1v3.2h3.9v-3.2h1v7.6h-1v-3.5h-3.9v3.5h-1v-7.6Z"/>
    <path class="cls-2" d="M133,24.7c0,.2,0,.4.1.6,0,.2.2.3.4.5.2.1.3.2.5.3.2,0,.4.1.6.1s.6,0,.8-.2c.2-.1.4-.3.6-.6l.7.6c-.5.7-1.3,1-2.3,1s-.8,0-1.1-.2c-.3-.1-.6-.3-.8-.6-.2-.2-.4-.5-.5-.9-.1-.3-.2-.7-.2-1.1s0-.7.2-1.1c.1-.3.3-.6.5-.9.2-.2.5-.4.8-.6.3-.1.7-.2,1.1-.2s.8,0,1.1.2c.3.2.6.4.8.6.2.3.3.5.4.9,0,.3.1.6.1,1v.3h-4.1ZM136.1,24c0-.2,0-.4-.1-.6,0-.2-.2-.3-.3-.5-.1-.1-.3-.2-.5-.3-.2,0-.4-.1-.6-.1s-.5,0-.7.1c-.2,0-.4.2-.5.3-.1.1-.2.3-.3.5,0,.2-.1.3-.1.5h3.1Z"/>
    <path class="cls-2" d="M138.3,22.5c.3-.3.6-.4.9-.6.4-.1.7-.2,1.1-.2s.7,0,1,.1c.3,0,.5.2.7.4.2.2.3.3.4.5,0,.2.1.4.1.6v2.6c0,.2,0,.3,0,.5,0,.2,0,.3,0,.4h-.9c0-.3,0-.5,0-.8h0c-.2.3-.5.6-.8.7-.3.1-.6.2-1,.2s-.5,0-.7,0c-.2,0-.4-.2-.6-.3-.2-.1-.3-.3-.4-.5,0-.2-.1-.4-.1-.7s0-.6.2-.8c.1-.2.3-.4.6-.5.3-.1.6-.2.9-.3.3,0,.7,0,1.1,0h.7v-.2c0-.1,0-.3,0-.4,0-.1-.1-.2-.2-.3-.1-.1-.2-.2-.4-.2-.2,0-.3,0-.5,0s-.3,0-.5,0c-.1,0-.3,0-.4.1-.1,0-.2.1-.3.2,0,0-.2.1-.3.2l-.6-.6ZM141,24.5c-.2,0-.5,0-.7,0-.2,0-.5,0-.7.1-.2,0-.4.2-.5.3-.1.1-.2.3-.2.5,0,.3,0,.5.3.6.2.1.5.2.8.2s.5,0,.7-.1c.2,0,.3-.2.5-.3.1-.1.2-.3.2-.5,0-.2,0-.3,0-.5v-.3h-.5Z"/>
    <path class="cls-2" d="M143.9,18.8h1v8.1h-1v-8.1Z"/>
    <path class="cls-2" d="M149.2,22.7h-1.4v2.3c0,.1,0,.3,0,.4,0,.1,0,.3,0,.4,0,.1.1.2.2.3,0,0,.2.1.4.1s.2,0,.4,0c.1,0,.2,0,.3-.1v.9c-.1,0-.3.1-.4.1-.2,0-.3,0-.4,0-.4,0-.7,0-.9-.2s-.4-.2-.5-.4c0-.2-.2-.3-.2-.6,0-.2,0-.4,0-.6v-2.7h-1.1v-.8h1.1v-1.4h1v1.4h1.4v.8Z"/>
    <path class="cls-2" d="M150.4,18.8h1v3.8h0c.1-.3.3-.5.6-.7.3-.2.6-.3,1-.3s.5,0,.7.1c.2,0,.4.2.6.3.2.2.3.4.4.6.1.2.2.5.2.9v3.3h-1v-3c0-.2,0-.4,0-.6,0-.2-.2-.3-.3-.4-.1-.1-.2-.2-.4-.2-.1,0-.3,0-.4,0s-.4,0-.6,0-.3.2-.5.3c-.1.1-.2.3-.3.5,0,.2-.1.5-.1.8v2.6h-1v-8.1Z"/>
    <path class="cls-2" d="M159.9,25.3c.2.3.4.5.7.6.3.1.6.2.9.2s.3,0,.5,0c.2,0,.3-.1.5-.2.1-.1.3-.2.4-.4,0-.2.1-.3.1-.5s0-.5-.3-.7c-.2-.2-.4-.3-.7-.4-.3-.1-.6-.2-.9-.3-.3,0-.6-.2-.9-.4-.3-.2-.5-.4-.7-.7-.2-.3-.3-.7-.3-1.2s0-.5.1-.7c0-.3.2-.5.5-.7.2-.2.5-.4.8-.5.3-.1.7-.2,1.2-.2s.8,0,1.2.2c.4.1.7.3,1,.7l-.8.8c-.1-.2-.3-.4-.5-.5-.2-.1-.5-.2-.8-.2s-.5,0-.7.1c-.2,0-.3.2-.5.3-.1.1-.2.2-.2.4,0,.1,0,.3,0,.4,0,.3,0,.6.3.7.2.2.4.3.7.4.3.1.6.2.9.3.3,0,.6.2.9.4.3.2.5.4.7.6.2.3.3.6.3,1.1s0,.7-.2,1c-.1.3-.3.5-.6.7-.2.2-.5.4-.8.5-.3.1-.7.2-1,.2s-1,0-1.4-.3c-.4-.2-.8-.4-1-.8l.9-.7Z"/>
    <path class="cls-2" d="M166.1,24.7c0,.2,0,.4.1.6,0,.2.2.3.4.5.2.1.3.2.5.3.2,0,.4.1.6.1s.6,0,.8-.2c.2-.1.4-.3.6-.6l.7.6c-.5.7-1.3,1-2.3,1s-.8,0-1.1-.2c-.3-.1-.6-.3-.8-.6-.2-.2-.4-.5-.5-.9-.1-.3-.2-.7-.2-1.1s0-.7.2-1.1c.1-.3.3-.6.5-.9.2-.2.5-.4.8-.6.3-.1.7-.2,1.1-.2s.8,0,1.1.2c.3.2.6.4.8.6.2.3.3.5.4.9,0,.3.1.6.1,1v.3h-4.1ZM169.2,24c0-.2,0-.4-.1-.6,0-.2-.2-.3-.3-.5-.1-.1-.3-.2-.5-.3-.2,0-.4-.1-.6-.1s-.5,0-.7.1c-.2,0-.4.2-.5.3-.1.1-.2.3-.3.5,0,.2-.1.3-.1.5h3.1Z"/>
    <path class="cls-2" d="M171.4,21.8h1v.8h0c0-.1.2-.3.3-.4.1-.1.2-.2.4-.3.1,0,.3-.1.4-.2.2,0,.3,0,.5,0s.3,0,.4,0v1c-.1,0-.2,0-.3,0,0,0-.2,0-.2,0-.5,0-.8.1-1.1.4-.3.3-.4.7-.4,1.2v2.6h-1v-5.1Z"/>
    <path class="cls-2" d="M174.7,21.8h1.1l1.5,3.9,1.5-3.9h1l-2,5.1h-1.1l-2.1-5.1Z"/>
    <path class="cls-2" d="M180.6,20c0-.2,0-.4.2-.5.1-.1.3-.2.5-.2s.4,0,.5.2c.1.1.2.3.2.5s0,.4-.2.5c-.1.1-.3.2-.5.2s-.4,0-.5-.2c-.1-.1-.2-.3-.2-.5ZM180.8,21.8h1v5.1h-1v-5.1Z"/>
    <path class="cls-2" d="M186.9,23.2c-.2-.2-.4-.3-.6-.4-.2,0-.4-.1-.7-.1s-.5,0-.7.1c-.2,0-.4.2-.5.4-.1.2-.2.4-.3.6,0,.2-.1.4-.1.7s0,.5.1.7c0,.2.2.4.3.6.1.2.3.3.5.4.2,0,.4.1.7.1s.5,0,.7-.1.4-.2.5-.4l.7.7c-.3.3-.5.5-.9.6-.3.1-.7.2-1.1.2s-.8,0-1.1-.2c-.3-.1-.6-.3-.8-.5-.2-.2-.4-.5-.5-.8-.1-.3-.2-.7-.2-1.1s0-.8.2-1.1c.1-.3.3-.6.5-.9.2-.2.5-.4.8-.6.3-.1.7-.2,1.1-.2s.7,0,1.1.2c.3.1.6.3.9.6l-.7.7Z"/>
    <path class="cls-2" d="M189.2,24.7c0,.2,0,.4.1.6,0,.2.2.3.4.5.2.1.3.2.5.3.2,0,.4.1.6.1s.6,0,.8-.2c.2-.1.4-.3.6-.6l.7.6c-.5.7-1.3,1-2.3,1s-.8,0-1.1-.2c-.3-.1-.6-.3-.8-.6-.2-.2-.4-.5-.5-.9-.1-.3-.2-.7-.2-1.1s0-.7.2-1.1c.1-.3.3-.6.5-.9.2-.2.5-.4.8-.6.3-.1.7-.2,1.1-.2s.8,0,1.1.2c.3.2.6.4.8.6.2.3.3.5.4.9,0,.3.1.6.1,1v.3h-4.1ZM192.3,24c0-.2,0-.4-.1-.6,0-.2-.2-.3-.3-.5-.1-.1-.3-.2-.5-.3-.2,0-.4-.1-.6-.1s-.5,0-.7.1c-.2,0-.4.2-.5.3-.1.1-.2.3-.3.5,0,.2-.1.3-.1.5h3.1Z"/>
    <path class="cls-2" d="M197.2,23.1c-.1-.1-.3-.3-.4-.4-.2,0-.4-.1-.6-.1s-.4,0-.6.1c-.2,0-.3.2-.3.4s0,.3.1.4c0,0,.2.2.3.2.1,0,.3.1.4.1.2,0,.3,0,.4,0,.2,0,.4.1.6.2.2,0,.3.2.5.3.1.1.2.3.3.4,0,.2.1.4.1.6s0,.5-.2.7c-.1.2-.3.4-.5.5-.2.1-.4.2-.7.3-.2,0-.5,0-.7,0-.4,0-.8,0-1.1-.2-.3-.1-.6-.4-.9-.7l.7-.6c.2.2.3.3.5.4.2.1.4.2.7.2s.2,0,.4,0c.1,0,.2,0,.3-.1,0,0,.2-.1.2-.2,0,0,0-.2,0-.3s0-.3-.1-.4c0,0-.2-.2-.3-.2-.1,0-.3,0-.4-.1-.1,0-.3,0-.4,0-.2,0-.4-.1-.6-.2s-.4-.2-.5-.3c-.1-.1-.3-.2-.3-.4,0-.2-.1-.4-.1-.6s0-.5.2-.7c.1-.2.3-.4.4-.5.2-.1.4-.2.6-.3.2,0,.5,0,.7,0,.3,0,.7,0,1,.2.3.1.6.3.8.6l-.8.6Z"/>
  </g>
  <g>
    <polygon class="cls-2" points="42 15.3 28.5 15.3 28.5 6.7 24.9 6.7 24.9 28.8 28.5 28.8 28.5 19 42 19 42 28.8 45.7 28.8 45.7 6.7 42 6.7 42 15.3"/>
    <path class="cls-2" d="M2,10.2v3.4c0,0,0,15.2,0,15.2h20.1v-3.7H5.6v-6.1h16.4v-3.7H5.6v-1.7s-.2-2.4,1.1-3.4h15.4v-3.7H5.7c-2,0-3.7,1.6-3.7,3.7Z"/>
    <path class="cls-2" d="M51.6,10.4h17.1v-3.7h-16.6s-4.4.3-4.4,5.4c0,5,.5,6.4,3.9,6.8h12.4,0s1.6-.1,1.5,3c0,3.4-1.4,3-1.4,3h-16v3.7h16s3.7-.4,4.3-3.5c.6-3.1.1-6.2.1-6.2,0,0-.5-3.6-4.4-3.7h-12.3,0s-1-.2-1-1.4,0-3.3.9-3.5Z"/>
  </g>
  <rect class="cls-2" x="73.2" y="7.4" width=".6" height="20.5"/>
</svg>