<svg xmlns="http://www.w3.org/2000/svg" xmlns:xlink="http://www.w3.org/1999/xlink" width="349.832" height="132.801" viewBox="0 0 349.832 132.801"><defs><clipPath id="a"><rect width="349.832" height="132.801" fill="none"/></clipPath></defs><g clip-path="url(#a)"><path d="M49.721,22.59H65.457c10.67,0,18.013,6.065,18.013,15.962S76.127,54.514,65.457,54.514H49.721ZM65,46.121c4.516,0,7.616-2.69,7.616-7.569s-3.1-7.571-7.616-7.571H60.483V46.121Z" transform="translate(56.495 25.667)" fill="#198476"/><rect width="10.762" height="31.924" transform="translate(143.884 48.255)" fill="#198476"/><path d="M98.424,48.949H86.293l-2.145,5.565H73.2L87.158,22.59H97.739l13.956,31.924H100.567ZM95.459,41.2l-3.1-8.026-3.1,8.026Z" transform="translate(83.177 25.667)" fill="#198476"/><path d="M123.5,45.712c0,5.565-4.7,8.8-13.5,8.8H92.032V22.589H109.09c8.8,0,12.9,3.512,12.9,8.346a7.439,7.439,0,0,1-4.422,6.887c3.738,1.369,5.928,4.1,5.928,7.889m-20.888-15.6v4.742h5.018c2.416,0,3.51-.82,3.51-2.371s-1.094-2.371-3.51-2.371Zm10.034,14.366c0-1.643-1.186-2.508-3.557-2.508h-6.477v5.016h6.477c2.371,0,3.557-.865,3.557-2.508" transform="translate(104.57 25.666)" fill="#198476"/><path d="M135.077,46.4v8.118H108.534V22.59h25.951v8.118h-15.37v3.741h13.5V42.2h-13.5v4.2Z" transform="translate(123.32 25.667)" fill="#198476"/><path d="M131.119,30.936h-9.35V22.589h29.463v8.346h-9.35V54.513H131.119Z" transform="translate(138.358 25.666)" fill="#198476"/><path d="M163.4,46.4v8.118H136.862V22.59h25.951v8.118h-15.37v3.741h13.5V42.2h-13.5v4.2Z" transform="translate(155.507 25.667)" fill="#198476"/><path d="M150.29,52.348l3.467-7.844a21.886,21.886,0,0,0,10.534,2.918c3.057,0,4.151-.639,4.151-1.732,0-4.014-17.65-.775-17.65-12.679,0-5.928,4.971-10.762,14.868-10.762a25.355,25.355,0,0,1,12.04,2.781l-3.239,7.8a19.678,19.678,0,0,0-8.893-2.373c-3.147,0-4.151.912-4.151,2.008,0,3.83,17.65.639,17.65,12.405,0,5.836-4.971,10.762-14.868,10.762-5.334,0-10.715-1.322-13.909-3.283" transform="translate(170.765 25.279)" fill="#198476"/><path d="M49.227,62.951c0-7.231,5.55-12.311,13.119-12.311,4.608,0,8.242,1.681,10.564,4.708L67.9,59.824a6.359,6.359,0,0,0-5.146-2.76c-3.3,0-5.516,2.288-5.516,5.887s2.22,5.887,5.516,5.887a6.359,6.359,0,0,0,5.146-2.76l5.014,4.475c-2.322,3.027-5.956,4.708-10.564,4.708-7.569,0-13.119-5.078-13.119-12.311" transform="translate(55.933 57.538)" fill="#dc1e67"/><path d="M60.706,62.951c0-7.131,5.618-12.311,13.287-12.311s13.287,5.18,13.287,12.311S81.662,75.262,73.993,75.262s-13.287-5.18-13.287-12.311m18.568,0c0-3.666-2.354-5.887-5.281-5.887s-5.281,2.222-5.281,5.887,2.354,5.887,5.281,5.887,5.281-2.222,5.281-5.887" transform="translate(68.976 57.538)" fill="#dc1e67"/><path d="M97.709,50.892V74.439H91.183l-8.947-10.7v10.7H74.5V50.892h6.526l8.947,10.7v-10.7Z" transform="translate(84.648 57.824)" fill="#dc1e67"/><path d="M95.1,56.879v4.037h9.822V66.9H95.1v7.537H87.159V50.892H106.3v5.988Z" transform="translate(99.032 57.824)" fill="#dc1e67"/><path d="M116.875,68.451v5.988H97.3V50.891h19.139v5.988H105.1v2.758h9.957v5.719H105.1v3.1Z" transform="translate(110.554 57.824)" fill="#dc1e67"/><path d="M117.988,68.518h-2.153V74.44H107.9V50.892h11.335c6.56,0,10.73,3.431,10.73,8.88a7.881,7.881,0,0,1-4.439,7.4l4.945,7.267h-8.479Zm.739-11.5h-2.892V62.53h2.892c2.187,0,3.23-1.042,3.23-2.758s-1.042-2.758-3.23-2.758" transform="translate(122.595 57.825)" fill="#dc1e67"/><path d="M139.2,68.451v5.988H119.626V50.891h19.139v5.988H127.43v2.758h9.957v5.719H127.43v3.1Z" transform="translate(135.923 57.824)" fill="#dc1e67"/><path d="M153.433,50.892V74.439h-6.526l-8.947-10.7v10.7h-7.737V50.892h6.526l8.947,10.7v-10.7Z" transform="translate(147.963 57.824)" fill="#dc1e67"/><path d="M142.441,62.951c0-7.231,5.55-12.311,13.119-12.311,4.608,0,8.242,1.681,10.564,4.708l-5.014,4.475a6.359,6.359,0,0,0-5.146-2.76c-3.3,0-5.516,2.288-5.516,5.887s2.22,5.887,5.516,5.887a6.359,6.359,0,0,0,5.146-2.76l5.014,4.475c-2.322,3.027-5.956,4.708-10.564,4.708-7.569,0-13.119-5.078-13.119-12.311" transform="translate(161.846 57.538)" fill="#dc1e67"/><path d="M174.173,68.451v5.988H154.6V50.891h19.139v5.988H162.4v2.758h9.957v5.719H162.4v3.1Z" transform="translate(175.658 57.824)" fill="#dc1e67"/><path d="M49.392,37.713V11.4a10.755,10.755,0,0,1,3.422-8.011A11.12,11.12,0,0,1,60.874.12H81.739v7.5H60.874a3.9,3.9,0,0,0-2.837,1.141A3.543,3.543,0,0,0,56.92,11.4v2.865H81.739v7.528H56.92v8.391H81.739v7.528Z" transform="translate(56.121 0.136)" fill="#121f4d"/><path d="M103.6,37.713h-7.5V17.028H84.407a9.554,9.554,0,0,0-6.919,2.788,8.954,8.954,0,0,0-2.816,6.618V37.713H67.144V.12h7.528V12.491a17.071,17.071,0,0,1,9.735-2.965H96.094V.12h7.5Z" transform="translate(76.291 0.136)" fill="#121f4d"/><path d="M122.773.121v7.5H98.336a3.634,3.634,0,0,0-2.662,1.117A3.675,3.675,0,0,0,94.585,11.4,3.29,3.29,0,0,0,95.6,13.81a4.634,4.634,0,0,0,2.89,1.344h14.881a10.809,10.809,0,0,1,7.96,3.32,10.809,10.809,0,0,1,3.32,7.96v3.753a7.531,7.531,0,0,1-7.528,7.528H87.055V30.186H117.12V26.433a3.72,3.72,0,0,0-3.751-3.751H98.336l-.3-.026a12,12,0,0,1-7.759-3.523A10.549,10.549,0,0,1,87.055,11.4a10.889,10.889,0,0,1,3.322-7.985,10.838,10.838,0,0,1,7.96-3.3Z" transform="translate(98.915 0.137)" fill="#121f4d"/><path d="M69.616,23.43c-2.38-6.043-8.823-9.8-16.814-9.8H0V28.194H54.062a1.255,1.255,0,0,1,.786,2.235c-8.421,6.744-33.9,27.156-48.454,38.839C-.857,75.088-3.58,81.525,9.666,96.085,6.187,86.573,15.4,80.662,15.4,80.662L64.128,41.541c5.774-5.383,7.831-12.159,5.488-18.111" transform="translate(0 15.49)" fill="#121f4d"/><path d="M83.969,78.346A49.01,49.01,0,0,0,98.327,54.694a42.912,42.912,0,0,0-1.615-26.447A43.353,43.353,0,0,0,79.641,7.588,49.46,49.46,0,0,0,52.8,0H0V14.561H52.8c14.106,0,25.739,7.289,30.362,19.023,4.55,11.553,1.053,24.622-9.124,34.114L23.492,106.946c-4.249,3.488-9.237,12.074-3.136,19.566,4.633,5.687,8.462,6.289,12.01,6.289H97.5V118.241H33.424c.1-.083.19-.164.291-.248L51.861,103.68H97.5V89.117H70.323L83.916,78.4l.053-.049" transform="translate(0 0)" fill="#121f4d"/><rect width="255.019" height="14.561" transform="translate(94.81 89.117)" fill="#121f4d"/><rect width="101.937" height="37.85" transform="translate(247.895)" fill="#121f4d"/><text transform="translate(255.549 29.942)" fill="#fff" font-size="34" font-family="Montserrat-ExtraBold, Montserrat" font-weight="800"><tspan x="0" y="0" letter-spacing="-0.001em">2</tspan><tspan y="0" letter-spacing="-0.008em">0</tspan><tspan y="0" letter-spacing="-0.004em">2</tspan><tspan y="0">4</tspan></text></g></svg>